<svg xmlns="http://www.w3.org/2000/svg" viewBox="0 0 30 30"><path d="M 15 2 C 13.895 2 13 2.895 13 4 C 13 5.105 13.895 6 15 6 C 16.105 6 17 5.104 17 4 C 17 2.895 16.105 2 15 2 z M 6.9785156 3.9941406 A 1.0001 1.0001 0 0 0 6.5273438 5.8808594 A 1.0001 1.0001 0 0 0 6.5410156 5.8886719 L 12 9 L 12 12.267578 L 12 13.0625 L 11.796875 16.082031 L 11.039062 18.724609 A 1.0001 1.0001 0 0 0 11.005859 19.185547 C 9.8455366 19.60128 9 20.704713 9 22 A 1.0001 1.0001 0 1 0 11 22 C 11 21.43497 11.43497 21 12 21 L 13 21 C 13.56503 21 14 21.43497 14 22 L 14 25.900391 C 12.661089 25.672185 11.447266 25.105469 11.447266 25.105469 A 1.0001 1.0001 0 0 0 10.552734 25.105469 C 10.552734 25.105469 8.6666667 26 7 26 C 5.3333333 26 3.4472656 25.105469 3.4472656 25.105469 A 1.0001 1.0001 0 0 0 2.9648438 24.994141 A 1.0001 1.0001 0 0 0 2.5527344 26.894531 C 2.5527344 26.894531 4.6666667 28 7 28 C 8.9465696 28 10.458804 27.333203 11 27.078125 C 11.520886 27.323631 12.945692 27.945481 14.787109 27.992188 A 1.0001 1.0001 0 0 0 15.205078 27.992188 A 1.0001 1.0001 0 0 0 15.212891 27.990234 C 17.054269 27.943512 18.479121 27.323627 19 27.078125 C 19.541196 27.333203 21.05343 28 23 28 C 25.333333 28 27.447266 26.894531 27.447266 26.894531 A 1.0001163 1.0001163 0 1 0 26.552734 25.105469 C 26.552734 25.105469 24.666667 26 23 26 C 21.333333 26 19.447266 25.105469 19.447266 25.105469 A 1.0001 1.0001 0 0 0 18.552734 25.105469 C 18.552734 25.105469 17.338911 25.672185 16 25.900391 L 16 22 C 16 21.43497 16.43497 21 17 21 L 18 21 C 18.56503 21 19 21.43497 19 22 A 1.0001 1.0001 0 1 0 21 22 C 21 20.35503 19.64497 19 18 19 L 18 15.792969 A 1.0001 1.0001 0 0 0 17.902344 15.369141 L 17.896484 15.357422 L 17 13.205078 L 17 9.7382812 L 18.824219 9.9824219 A 1.0001 1.0001 0 0 0 19.316406 9.9492188 L 22.316406 8.9492188 A 1.0005644 1.0005644 0 1 0 21.683594 7.0507812 L 18.957031 7.9609375 L 16.236328 7.296875 A 1.0001 1.0001 0 0 0 16.169922 7.2832031 L 12.322266 6.6230469 L 7.4589844 4.1113281 A 1.0001 1.0001 0 0 0 6.9785156 3.9941406 z M 14.496094 14 L 16 16.927734 L 16 19 L 13.039062 19 L 13.960938 15.785156 A 1.0001 1.0001 0 0 0 13.994141 15.601562 L 14.496094 14 z"></path></svg>