<svg xmlns="http://www.w3.org/2000/svg" viewBox="0 0 30 30">    <path d="M 14.1875 3 C 12.8065 3 11.6875 4.119 11.6875 5.5 C 11.6875 6.881 12.8075 8 14.1875 8 C 15.5675 8 16.6875 6.881 16.6875 5.5 C 16.6875 4.119 15.5685 3 14.1875 3 z M 10.439453 7.9960938 A 1.0001 1.0001 0 0 0 10.242188 8.0253906 C 10.242188 8.0253906 10.240234 8.0253906 10.240234 8.0253906 C 9.3975457 8.113575 8.6864628 8.6145263 8.3046875 9.328125 L 8.2871094 9.3339844 L 6.3554688 13.214844 L 6.3632812 13.21875 C 6.1376751 13.594374 6 14.02981 6 14.5 C 6 15.065405 6.1953934 15.581243 6.5117188 16 L 4 16 A 1.0001 1.0001 0 0 0 3.4628906 17.851562 C 3.1854679 18.132035 3 18.504089 3 19 C 3 19.771 3.2459531 20.454172 3.6269531 21.076172 C 3.8699531 21.128172 4.1097969 21.201406 4.3417969 21.316406 C 4.7217969 21.502406 5.969 22 7 22 C 8.031 22 9.278875 21.501547 9.671875 21.310547 C 10.510875 20.901547 11.506797 20.899406 12.341797 21.316406 C 12.722797 21.501406 13.969 22 15 22 C 16.031 22 17.278875 21.501547 17.671875 21.310547 C 18.510875 20.901547 19.506797 20.899406 20.341797 21.316406 C 20.722797 21.501406 21.969 22 23 22 C 24.031 22 25.278875 21.501547 25.671875 21.310547 C 25.671875 21.310547 28 18.905 28 18 C 28 17.065771 24.529505 13.514981 19.976562 12.236328 A 1.0001 1.0001 0 0 0 19.332031 11.056641 L 19.060547 10.960938 L 19.0625 10.947266 L 11.6875 8.3007812 L 11.671875 8.3046875 C 11.379375 8.1481999 11.054535 8.0504577 10.707031 8.0214844 A 1.0001 1.0001 0 0 0 10.439453 7.9960938 z M 12.679688 11.728516 L 18.289062 12.886719 L 15.800781 16 L 14 16 A 1.0001 1.0001 0 0 0 13.242188 15.029297 L 11.275391 14.539062 L 12.679688 11.728516 z M 2.9648438 22.994141 A 1.0001 1.0001 0 0 0 2.5527344 24.894531 C 2.5527344 24.894531 4.6666667 26 7 26 C 8.9465696 26 10.458804 25.333203 11 25.078125 C 11.541196 25.333203 13.05343 26 15 26 C 16.94657 26 18.458804 25.333203 19 25.078125 C 19.541196 25.333203 21.05343 26 23 26 C 25.333333 26 27.447266 24.894531 27.447266 24.894531 A 1.0001163 1.0001163 0 1 0 26.552734 23.105469 C 26.552734 23.105469 24.666667 24 23 24 C 21.333333 24 19.447266 23.105469 19.447266 23.105469 A 1.0001 1.0001 0 0 0 18.552734 23.105469 C 18.552734 23.105469 16.666667 24 15 24 C 13.333333 24 11.447266 23.105469 11.447266 23.105469 A 1.0001 1.0001 0 0 0 10.552734 23.105469 C 10.552734 23.105469 8.6666667 24 7 24 C 5.3333333 24 3.4472656 23.105469 3.4472656 23.105469 A 1.0001 1.0001 0 0 0 2.9648438 22.994141 z"></path></svg>