<svg xmlns="http://www.w3.org/2000/svg" viewBox="0 0 30 30">    <path d="M 23.375 2.9707031 C 22.594625 2.9309531 22 3.0097656 22 3.0097656 C 21.341123 5.8480048 22.321714 8.0777092 22.333984 8.1054688 L 22.101562 9.0371094 L 17.886719 10 L 17.371094 10 L 19.244141 11.740234 L 21.556641 11.212891 L 20.773438 14.349609 L 18.207031 13.505859 L 15.4375 10.921875 L 15.435547 10.921875 A 2.4990001 2.4990001 0 0 0 13.5 10 A 2.4990001 2.4990001 0 0 0 11.101562 11.808594 L 11.095703 11.8125 L 9.1328125 17.693359 L 9.1367188 17.695312 A 2.4990001 2.4990001 0 0 0 9.0019531 18.498047 A 2.4990001 2.4990001 0 0 0 9.0546875 19 L 5 19 C 3.895 19 3 19.895 3 21 L 3 22.003906 C 3.456 22.004906 3.910125 22.107547 4.328125 22.310547 C 4.722125 22.502547 5.97 23 7 23 C 8.03 23 9.2772031 22.501406 9.6582031 22.316406 C 10.493203 21.898406 11.487125 21.901547 12.328125 22.310547 C 12.722125 22.502547 13.97 23 15 23 C 16.03 23 17.277203 22.501406 17.658203 22.316406 C 18.034972 22.128022 18.441969 22.038436 18.853516 22.023438 L 18.306641 24.212891 C 17.784344 24.437085 16.346841 25 15 25 C 13.333333 25 11.447266 24.105469 11.447266 24.105469 A 1.0001 1.0001 0 0 0 10.552734 24.105469 C 10.552734 24.105469 8.6666667 25 7 25 C 5.3333333 25 3.4472656 24.105469 3.4472656 24.105469 A 1.0001 1.0001 0 0 0 2.9648438 23.994141 A 1.0001 1.0001 0 0 0 2.5527344 25.894531 C 2.5527344 25.894531 4.6666667 27 7 27 C 8.9465696 27 10.458804 26.333203 11 26.078125 C 11.541196 26.333203 13.05343 27 15 27 C 16.94657 27 18.458804 26.333203 19 26.078125 C 19.541196 26.333203 21.05343 27 23 27 C 25.333333 27 27.447266 25.894531 27.447266 25.894531 A 1.0001163 1.0001163 0 1 0 26.552734 24.105469 C 26.552734 24.105469 24.666667 25 23 25 C 21.333333 25 19.447266 24.105469 19.447266 24.105469 A 1.0001 1.0001 0 0 0 19.371094 24.072266 L 21.244141 16.582031 A 1.0001 1.0001 0 0 0 21.722656 14.664062 L 22.652344 10.949219 C 23.155838 10.801382 23.467958 10.295 23.349609 9.7773438 C 23.305473 9.5839323 23.196122 9.430325 23.064453 9.3007812 L 23.314453 8.3046875 C 23.395459 8.2142515 25.515975 5.8304124 25.863281 3.6425781 C 25.120781 3.1675781 24.155375 3.0104531 23.375 2.9707031 z M 15.5 3 A 2.4990001 2.4990001 0 0 0 13.001953 5.4980469 A 2.4990001 2.4990001 0 0 0 15.5 7.9980469 A 2.4990001 2.4990001 0 0 0 17.998047 5.4980469 A 2.4990001 2.4990001 0 0 0 15.5 3 z M 15.494141 14.414062 L 15.652344 14.607422 A 1.0001 1.0001 0 0 0 16.113281 14.923828 L 20.287109 16.294922 L 19.617188 18.970703 C 19.40878 18.978869 19.221127 19 19 19 L 13.978516 19 L 15.494141 14.414062 z M 27 17 C 26.79777 17 26.620288 17.074389 26.462891 17.177734 L 26.445312 17.167969 C 25.560312 17.651969 24.395875 18.214891 22.796875 18.587891 L 21.740234 22.814453 C 22.150234 22.921453 22.591 23 23 23 C 23.547 23 24.153156 22.859219 24.660156 22.699219 C 27.442156 21.252219 28 18.863 28 18 C 28 17.448 27.552 17 27 17 z"></path></svg>