<svg id="Layer_3" enable-background="new 0 0 64 64" height="512" viewBox="0 0 64 64" width="512" xmlns="http://www.w3.org/2000/svg"><path d="m28 7c0-3.309-2.691-6-6-6s-6 2.691-6 6 2.691 6 6 6 6-2.691 6-6zm-6 4c-2.206 0-4-1.794-4-4s1.794-4 4-4 4 1.794 4 4-1.794 4-4 4z"/><path d="m52 23c-2.177 0-4.203.644-5.913 1.74l-7.002-6.224c-1.099-.978-2.515-1.516-3.986-1.516h-.496c-1.26 0-2.466.387-3.487 1.118l-4.116 2.939v-3.057c0-2.757-2.243-5-5-5h-4c-.553 0-1 .447-1 1v1.556c-.591-.344-1.268-.556-2-.556-2.206 0-4 1.794-4 4v6.586l-7.414 7.414h-1.586c-.553 0-1 .447-1 1v7c0 3.309 2.691 6 6 6h18.271c1.254 1.791 3.284 2.916 5.479 2.995.077.2.161.396.25.591l-3.707 3.707c-.391.391-.391 1.023 0 1.414 2.496 2.496 6.497 2.593 9.108.287.196.091.396.176.599.254v5.752c0 .553.447 1 1 1 3.776 0 6.863-3.005 6.995-6.75.2-.077.396-.161.591-.25l3.707 3.707c.391.391 1.023.391 1.414 0 2.496-2.496 2.592-6.497.287-9.108.091-.196.176-.396.254-.599h5.752c.553 0 1-.447 1-1 0-.696-.115-1.382-.316-2.042 2.987-.341 5.316-2.881 5.316-5.958v-7c0-6.065-4.935-11-11-11zm8.941 10h-2.021c-.488-3.386-3.401-6-6.92-6s-6.432 2.614-6.92 6h-2.021c.499-4.493 4.316-8 8.941-8s8.442 3.507 8.941 8zm-4.042 0h-9.798c.465-2.279 2.484-4 4.899-4s4.434 1.721 4.899 4zm-26.732-3.753 3.954-3.954c.187-.187.444-.293.707-.293h.531c.21 0 .411.064.581.186l6.034 4.311c-.49 1.087-.812 2.265-.924 3.504h-10.05v-1c0-1.018-.309-1.963-.833-2.754zm2.111-9.502c.681-.487 1.485-.745 2.325-.745h.496c.981 0 1.925.358 2.658 1.01l6.728 5.98c-.565.531-1.078 1.116-1.522 1.755l-5.86-4.186c-.511-.366-1.114-.559-1.744-.559h-.531c-.801 0-1.555.312-2.121.879l-3.954 3.954c-.524-.348-1.116-.602-1.753-.732v-2.101h3v-2h-2.28zm-13.278-4.745h3c1.654 0 3 1.346 3 3v5h-2v-6h-2v7c0 .553.447 1 1 1h3v2h-6v-8zm-4 2c1.103 0 2 .897 2 2v9c0 .553.447 1 1 1h8c1.654 0 3 1.346 3 3v1h-16v-14c0-1.103.897-2 2-2zm-4 11.414v4.586h-4.586zm50 6.586v4h-58v-4zm-10.459 13c-.437 0-.822.283-.954.699-.176.559-.405 1.099-.682 1.604-.213.39-.143.873.171 1.187l.217.217c1.573 1.573 1.783 4.001.631 5.803l-3.434-3.434c-.314-.314-.796-.382-1.187-.171-.506.276-1.046.506-1.604.682-.416.132-.699.517-.699.954v.459c0 2.415-1.721 4.435-4 4.899v-5.358c0-.437-.283-.822-.699-.954-.559-.176-1.099-.405-1.604-.682-.39-.21-.872-.144-1.187.171l-.217.217c-.88.88-2.049 1.364-3.293 1.364-.903 0-1.768-.256-2.51-.732l3.434-3.435c.313-.313.384-.797.171-1.187-.276-.506-.506-1.046-.682-1.604-.132-.416-.517-.699-.954-.699h-.459c-1.093 0-2.138-.364-2.991-1h6.071c.488 3.386 3.401 6 6.92 6s6.432-2.614 6.92-6h7.648c.141.323.26.654.331 1zm-14.44-1h9.798c-.465 2.279-2.484 4-4.899 4s-4.434-1.721-4.899-4zm20.899-2h-50c-2.206 0-4-1.794-4-4h58c0 2.206-1.794 4-4 4z"/><path d="m10 51.969c.912 1.225 2.359 2.031 4 2.031s3.088-.806 4-2.031c.912 1.225 2.359 2.031 4 2.031 2.757 0 5-2.243 5-5h-2c0 1.654-1.346 3-3 3s-3-1.346-3-3h-2c0 1.654-1.346 3-3 3s-3-1.346-3-3h-2c0 1.654-1.346 3-3 3s-3-1.346-3-3h-2c0 2.757 2.243 5 5 5 1.641 0 3.088-.806 4-2.031z"/><path d="m22 61c-1.654 0-3-1.346-3-3h-2c0 1.654-1.346 3-3 3s-3-1.346-3-3h-2c0 1.654-1.346 3-3 3s-3-1.346-3-3h-2c0 2.757 2.243 5 5 5 1.641 0 3.088-.806 4-2.031.912 1.225 2.359 2.031 4 2.031s3.088-.806 4-2.031c.912 1.225 2.359 2.031 4 2.031 2.757 0 5-2.243 5-5h-2c0 1.654-1.346 3-3 3z"/><path d="m58 61c-1.654 0-3-1.346-3-3h-2c0 2.757 2.243 5 5 5s5-2.243 5-5h-2c0 1.654-1.346 3-3 3z"/></svg>