<svg xmlns="http://www.w3.org/2000/svg" viewBox="0 0 50 50"><path d="M 22.53125 0 C 20.03125 0 18.03125 2 18.03125 4.5 C 18.03125 7 20.03125 9 22.53125 9 C 25.03125 9 27.03125 7 27.03125 4.5 C 27.03125 2 25.03125 0 22.53125 0 Z M 37.6875 6.59375 C 37.449219 6.613281 37.226563 6.6875 37 6.8125 L 29.6875 10.6875 L 24.53125 10.90625 C 25.246094 11.628906 26.707031 13.121094 27.96875 14.40625 L 31.1875 14 L 36.125 11.4375 L 34.3125 20.71875 C 34.308594 20.761719 34.308594 20.800781 34.3125 20.84375 L 28.6875 18 C 28.6875 18 23.085938 12.304688 22.6875 11.90625 C 22.1875 11.40625 21.898438 11 20 11 C 16.898438 11 16.914063 11.1875 16.3125 12.6875 L 12.8125 23.09375 C 12.3125 24.492188 12.695313 25.90625 13.59375 26.90625 L 20.84375 34.75 L 20.84375 41.8125 C 20.84375 42.871094 21.523438 43.714844 22.46875 44 L 10.40625 44 C 11.09375 43.785156 11.648438 43.25 11.875 42.5 L 15.40625 31.8125 L 12.125 28.25 C 12.011719 28.125 11.914063 27.976563 11.8125 27.84375 L 7.46875 41.09375 C 7.070313 42.292969 7.769531 43.601563 8.96875 44 L 3.3125 44 C 2.414063 44 0.738281 43.992188 0.09375 45.5 C -0.144531 46.054688 -0.132813 46.664063 0.15625 47.21875 C 0.511719 47.894531 1.242188 48.386719 2.09375 48.5625 C 3.128906 48.816406 9.84375 49.90625 23.1875 50 C 23.023438 49.527344 22.945313 49.007813 23.03125 48.5 C 23.328125 46.726563 23.871094 45.246094 24.5 44 L 23.84375 44 C 24.789063 43.714844 25.4375 42.871094 25.4375 41.8125 L 25.4375 34.0625 C 25.4375 33.5625 25.238281 33.054688 24.9375 32.65625 L 19.40625 26.09375 L 22.3125 17.5 L 26.6875 21.3125 L 33.59375 24.8125 C 33.496094 24.941406 33.433594 25.089844 33.40625 25.25 L 30.3125 40.4375 C 29.113281 41.144531 25.890625 43.503906 25 48.84375 C 24.949219 49.136719 25.058594 49.429688 25.25 49.65625 C 25.441406 49.878906 25.707031 50 26 50 L 33 49.90625 C 33.480469 49.898438 33.917969 49.535156 34 49.0625 C 34.796875 44.464844 33.050781 41.792969 32.28125 40.84375 L 35.375 25.65625 C 35.375 25.644531 35.375 25.636719 35.375 25.625 C 35.480469 25.652344 35.589844 25.6875 35.71875 25.6875 C 36.417969 25.6875 37.007813 25.289063 37.40625 24.6875 C 38.007813 23.585938 37.617188 22.492188 36.71875 22.09375 L 35.9375 21.6875 C 36.117188 21.535156 36.238281 21.324219 36.28125 21.09375 L 38.28125 10.90625 C 38.332031 10.710938 38.320313 10.503906 38.25 10.3125 L 38.6875 10.09375 C 39.585938 9.59375 40 8.492188 39.5 7.59375 C 39.125 6.917969 38.398438 6.539063 37.6875 6.59375 Z M 35.875 44 C 36.203125 45.484375 36.335938 47.28125 35.96875 49.40625 C 35.945313 49.539063 35.882813 49.65625 35.84375 49.78125 C 43.324219 49.433594 47.203125 48.75 47.9375 48.5625 C 48.792969 48.382813 49.460938 47.945313 49.8125 47.3125 C 50.113281 46.777344 50.144531 46.136719 49.90625 45.5 C 49.261719 43.992188 47.585938 44 46.6875 44 Z"></path></svg>